<svg xmlns="http://www.w3.org/2000/svg" viewBox="0 0 849.058 486.118"><defs><style>.cls-1,.cls-14,.cls-8{fill:#fff}.cls-2{fill:#e8e8e8}.cls-16,.cls-3{fill:none}.cls-4{fill:#ffd1a8}.cls-5{fill:#ffb26c}.cls-6{clip-path:url(#clip-path)}.cls-7{fill:#141414}.cls-14,.cls-16,.cls-8{stroke:#141414;stroke-miterlimit:10}.cls-14,.cls-8{stroke-width:.918px}.cls-9{fill:#b7b7b7}.cls-10{fill:#fb7800}.cls-11{fill:#094b87}.cls-12{fill:#f5f5f5}.cls-13{fill:#07335c}.cls-14{stroke-dasharray:4.863}.cls-15{fill:#9e9e9e}.cls-16{stroke-width:.959px}</style><clipPath id="clip-path"><path class="cls-1" d="M328.381 0H520.3a31.327 31.327 0 0 1 31.33 31.327v423.464a31.328 31.328 0 0 1-31.33 31.327H328.381a31.328 31.328 0 0 1-31.328-31.328V31.328A31.328 31.328 0 0 1 328.381 0z"/></clipPath></defs><g id="レイヤー_2" data-name="レイヤー 2"><g id="illustration"><path class="cls-1" d="M235.237 19.447H304.452V110.584H235.237z"/><path class="cls-2" d="M284.756 30.58c-.6-.734-1.414-1.55-2.392-2.529-.68-.679-3.807-3.4-7.4-3.4-2.366 0-6.825 1.877-6.825 7.777 0 3.7 1.414 5.82 3.535 8.92a49.532 49.532 0 0 1 5.03 9.571c.979 2.964.245 5.221-.978 5.221-1.17 0-2.339-1.468-3.019-2.284-.625-.652-4.65-5.411-6.227-7.4-2.067-2.529-7.315-7.723-13.433-7.723-8 0-10.551 6.934-10.959 11.421h-6.716v6.8h6.689c1.088 12.971 8.321 16.588 12.753 16.588a8.587 8.587 0 0 0 8.729-8.4c0-4.623-4.351-12.862-14.629-14.6.3-2.121.353-4.868 4.786-4.868 3.4 0 7.8 5.3 11.094 9.354 3.018 3.726 5.411 6.69 8.321 7.533a8.148 8.148 0 0 0 7.179-1.251 9.756 9.756 0 0 0 3.644-8.1c0-6.581-7.1-16.017-7.777-17.159-.816-1.332-2.176-3.589-.816-4.133.843-.354 2.746 1.387 4.65 3.317zm-35.812 26.894c5.819 1.523 7.8 5.873 7.8 7.505a2.042 2.042 0 0 1-2.012 1.958c-1.9 0-4.972-2.148-5.788-9.463z"/><path class="cls-2" d="M254.933 99.451c.6.734 1.414 1.55 2.393 2.529.68.68 3.807 3.4 7.4 3.4 2.366 0 6.826-1.876 6.826-7.777 0-3.7-1.414-5.819-3.535-8.919a49.627 49.627 0 0 1-5.031-9.572c-.979-2.964-.245-5.221.979-5.221 1.169 0 2.338 1.468 3.018 2.284.626.653 4.65 5.411 6.227 7.4 2.067 2.529 7.315 7.723 13.433 7.723 8 0 10.551-6.934 10.959-11.421h6.717v-6.8h-6.69c-1.091-12.977-8.329-16.59-12.757-16.59a8.586 8.586 0 0 0-8.729 8.4c0 4.623 4.351 12.862 14.63 14.6-.3 2.121-.354 4.867-4.786 4.867-3.4 0-7.8-5.3-11.1-9.354-3.018-3.726-5.411-6.69-8.321-7.533a8.149 8.149 0 0 0-7.178 1.251 9.755 9.755 0 0 0-3.644 8.1c0 6.58 7.1 16.016 7.777 17.158.816 1.333 2.175 3.59.816 4.133-.843.354-2.747-1.386-4.65-3.317zm35.813-26.894c-5.82-1.522-7.805-5.873-7.805-7.5a2.042 2.042 0 0 1 2.013-1.958c1.903-.005 4.976 2.144 5.792 9.458z"/><path class="cls-2" d="M98.766 26.383H167.981V117.52H98.766z"/><path class="cls-1" d="M156.67 54.975c-.6-.734-1.414-1.55-2.393-2.529-.68-.68-3.807-3.4-7.4-3.4-2.366 0-6.826 1.877-6.826 7.777 0 3.7 1.414 5.82 3.535 8.919a49.627 49.627 0 0 1 5.031 9.572c.979 2.964.245 5.221-.979 5.221-1.169 0-2.338-1.468-3.018-2.284-.626-.653-4.65-5.411-6.227-7.4-2.067-2.529-7.315-7.723-13.433-7.723-8 0-10.551 6.934-10.959 11.421h-6.717v6.8h6.69c1.088 12.971 8.321 16.587 12.753 16.587a8.586 8.586 0 0 0 8.729-8.4c0-4.623-4.351-12.862-14.63-14.6.3-2.121.354-4.868 4.786-4.868 3.4 0 7.8 5.3 11.1 9.354 3.018 3.726 5.411 6.69 8.321 7.533a8.148 8.148 0 0 0 7.179-1.251 9.757 9.757 0 0 0 3.643-8.1c0-6.58-7.1-16.016-7.777-17.158-.816-1.333-2.175-3.589-.816-4.133.843-.354 2.747 1.386 4.65 3.317zm-35.812 26.894c5.819 1.522 7.8 5.873 7.8 7.5a2.042 2.042 0 0 1-2.012 1.958c-1.9.005-4.973-2.144-5.788-9.458zm17.542 33.045c-2.067-2.529-7.315-7.723-13.433-7.723-7.373 0-10.115 5.893-10.818 10.329h6.9c.326-1.735 1.124-3.395 4.569-3.395 1.771 0 3.814 1.444 5.831 3.395h9.086a156.083 156.083 0 0 1-2.135-2.606zm8.861-14.548c.843-.354 2.747 1.387 4.651 3.317l4.758-4.65c-.6-.733-1.414-1.549-2.393-2.528-.68-.68-3.807-3.4-7.4-3.4-2.366 0-6.825 1.876-6.825 7.777 0 3.7 1.413 5.819 3.534 8.918a58.488 58.488 0 0 1 4.308 7.719h7.227c-1.825-5.84-6.5-12.1-7.048-13.021-.812-1.331-2.173-3.588-.812-4.132z"/><path class="cls-3" d="M123.817 26.383h2.994a4.058 4.058 0 0 0-1.2-.2 7.345 7.345 0 0 0-1.794.2z"/><path class="cls-1" d="M107.288 30.666v6.8h6.69c1.088 12.97 8.321 16.587 12.753 16.587a8.587 8.587 0 0 0 8.729-8.4c0-4.623-4.351-12.863-14.63-14.6.252-1.782.341-4 2.987-4.664h-8.83a16.667 16.667 0 0 0-.982 4.283zm21.374 14.821a2.041 2.041 0 0 1-2.012 1.957c-1.9 0-4.977-2.148-5.792-9.463 5.819 1.519 7.804 5.874 7.804 7.506zm8.049-9.953c3.018 3.725 5.411 6.689 8.321 7.532a8.145 8.145 0 0 0 7.179-1.251 9.754 9.754 0 0 0 3.643-8.1 18.786 18.786 0 0 0-1.968-7.329h-7.581a32.639 32.639 0 0 1 2.316 5.045c.979 2.964.245 5.221-.979 5.221-1.169 0-2.338-1.469-3.018-2.285-.626-.652-4.65-5.411-6.227-7.4a19.02 19.02 0 0 0-.5-.585h-11.086c3.189.993 6.983 5.56 9.9 9.152z"/><path class="cls-4" d="M155.149 66.293H224.364V157.43H155.149z"/><path class="cls-5" d="M216.824 110.65c-7.676 0-21.358 7.225-24.248 24.293-3.522-.5-8.083-.587-8.083-7.947 0-5.645 8.805-12.96 15.534-18.424 6.186-5.012 11.108-8.985 12.508-13.817a13.53 13.53 0 0 0-2.078-11.921c-2.889-3.883-7.676-6.051-13.456-6.051-10.927 0-26.6 11.786-28.493 12.915-2.212 1.354-5.96 3.612-6.863 1.354-.587-1.4 2.3-4.56 5.509-7.721l-7.722-7.9c-1.219.994-2.573 2.348-4.2 3.974-.024.023-.057.059-.083.086v21.679a14.039 14.039 0 0 0 7.353 1.849c6.141 0 9.663-2.348 14.811-5.871 2.98-2.032 10.972-6.773 15.894-8.353 4.922-1.626 8.67-.407 8.67 1.626 0 1.941-2.438 3.882-3.793 5.011-1.084 1.039-8.984 7.722-12.284 10.341-4.2 3.432-12.824 12.147-12.824 22.307 0 13.275 11.514 17.52 18.965 18.2v11.15h11.289v-11.108c10.179-.854 16.885-3.987 21.132-7.832v-25.518a13.478 13.478 0 0 0-7.538-2.322zM204.09 134.9c2.529-9.663 9.754-12.959 12.463-12.959a3.389 3.389 0 0 1 3.251 3.341c-.004 3.159-3.567 8.261-15.714 9.618z"/><path class="cls-1" d="M328.381 0H520.3a31.327 31.327 0 0 1 31.33 31.327v423.464a31.328 31.328 0 0 1-31.33 31.327H328.381a31.328 31.328 0 0 1-31.328-31.328V31.328A31.328 31.328 0 0 1 328.381 0z"/><g class="cls-6"><path class="cls-4" d="M458.754 109.966l-31.687 31.688-31.688-31.688h19.013v-25.35h25.35v25.35zm14.894-15.1a47.516 47.516 0 0 0-88.726-12.676 38.042 38.042 0 0 0 4.119 75.86h82.389a31.629 31.629 0 0 0 2.218-63.185z"/></g><path class="cls-7" d="M520.3 0H328.381a31.419 31.419 0 0 0-31.327 31.328v423.463a31.419 31.419 0 0 0 31.327 31.327H520.3a31.419 31.419 0 0 0 31.327-31.327V31.328A31.419 31.419 0 0 0 520.3 0zm17.946 451.668a20.868 20.868 0 0 1-20.868 20.868H331.3a20.868 20.868 0 0 1-20.867-20.868V34.543A20.868 20.868 0 0 1 331.3 13.675h43.675c.9 5.84 3.7 15.51 12.42 15.51h73.367c9.774 0 12.411-9.67 13.114-15.51h43.5a20.868 20.868 0 0 1 20.868 20.868zM662.944 100.93c4.654 11.578 6.444 13.368 12.651 14.2.955.12 1.313.6 1.313 1.194a1.161 1.161 0 0 1-1.313 1.193c-1.313 0-3.7 0-6.684-.239a239.738 239.738 0 0 0-12.413-.357c-5.013 0-13.248.238-18.022.477-2.865.119-3.581.119-5.013.119a1.194 1.194 0 1 1 0-2.387c2.626 0 5.371-.238 7.877-.477 4.536-.478 6.565-2.268 6.565-5.61 0-2.029-.716-4.655-2.029-8.235l-6.445-17.665h-25.542L608.4 97.827c-2.149 5.61-2.865 8.713-2.865 11.219 0 3.462 1.79 5.252 5.968 5.61 2.387.239 4.3.358 4.893.358a1.124 1.124 0 0 1 1.194 1.193 1.16 1.16 0 0 1-1.194 1.313c-1.193 0-3.938-.119-7.519-.358-2.268-.119-5.013-.238-7.877-.238a61.875 61.875 0 0 0-6.207.238c-2.506.239-4.893.358-5.61.358a1.039 1.039 0 0 1-1.193-1.074 1.123 1.123 0 0 1 1.193-1.193c8.355 0 11.1-4.3 17.307-20.529l25.063-65.764c.239-.6.6-.955.955-.955.477 0 .835.358 1.074.955zm-24.468-20.409L626.9 48.892l-11.937 31.629z"/><path class="cls-7" d="M718.326 128.428c0 5.967 1.791 6.8 4.178 6.8 2.864 0 4.774-2.507 6.8-9.907.239-.715.477-1.074 1.194-1.074a.975.975 0 0 1 .954 1.074l-.119.836c-2.029 9.429-6.684 14.323-15.874 14.323-6.445 0-10.861-3.581-10.861-11.458h-.836c-2.984 8.951-10.264 12.532-19.454 12.532-9.072 0-16.949-4.417-16.949-14.084 0-11.219 10.623-17.187 36.045-19.693V96.2c0-13.248-5.848-16.71-12.532-16.71-7.161 0-11.219 4.536-11.219 7.042 0 .955.477 1.313 1.551 1.552 2.149.477 5.371 1.91 5.371 6.565 0 3.1-2.745 6.922-8.116 6.922-3.938 0-7.28-2.984-7.28-7.758 0-9.309 11.458-17.187 23.512-17.187 14.8 0 23.632 8 23.632 25.661zm-14.919-18.5c-15.039 1.313-21.841 6.564-21.841 16.471 0 5.371 3.461 9.787 9.309 9.787 7.042 0 12.532-5.848 12.532-15.278z"/><path class="cls-8" d="M226.005 377.391L327.268 357.994 327.268 222.078 226.005 239.289 226.005 377.391z"/><path class="cls-8" d="M323.238 227.05L331.298 225.687 331.298 217.107 323.238 218.47 323.238 227.05z"/><path class="cls-8" d="M221.643 245.367L229.703 244.004 229.703 235.424 221.643 236.787 221.643 245.367z"/><path class="cls-8" d="M323.238 362.566L331.298 361.203 331.298 352.623 323.238 353.986 323.238 362.566z"/><path class="cls-8" d="M221.643 382.032L229.703 380.669 229.703 372.089 221.643 373.452 221.643 382.032z"/><path class="cls-4" d="M463.177 333.591s-7.379 34.128-8.9 64.082c-1.674 33.012 2.5 65.835 3.317 73.291.665 6.1 4.636 15.154-3.454 15.154h-37.577c-5.687 0-7.582-.842-6.318-3.37s8.424-4 14.111-6.529 14.395-4.232 14.185-14.552-4.847-34.783-7.04-61.009c-2.293-27.408-.127-64.364.668-67.534 3.596-14.357 32.04-12.346 31.008.467z"/><path class="cls-9" d="M436.537 465.943c-.554-10.156-2.75-33.993-5.036-65.285-2-27.43-.126-64.363.668-67.534 3.6-14.357 32.041-12.347 31.008.466 0 0-6.34 33.183-7.859 63.137-1.423 28.045 1.524 59.005 2.9 71.341-.002 0-21.591-.486-21.681-2.125z"/><path class="cls-4" d="M489.821 335.309s.458 38.656 6.706 67.991a265.424 265.424 0 0 0 24.5 67.664c3.573 7.028 4.637 15.154-3.454 15.154H480c-5.687 0-7.583-.842-6.319-3.37s8.425-4 14.112-6.529 15.679-3.664 11.284-13c-4.82-10.242-18.527-34.895-26.69-59.915-9.631-29.517-14.363-65.288-13.569-68.459 3.592-14.361 32.036-12.345 31.003.464z"/><path class="cls-9" d="M498.289 467.981c-4.573-10.354-17.744-39.661-25.907-64.681-9.631-29.517-14.363-65.288-13.569-68.459 3.6-14.357 32.041-12.345 31.009.468 0 0 .457 38.656 6.7 67.991 6.191 29.07 16.3 49.114 21.808 60.228.005 0-19.752 5.106-20.041 4.453z"/><path class="cls-8" d="M272.354 347.935L387.821 326.753 387.821 190.837 272.354 212.019 272.354 347.935z"/><path class="cls-8" d="M383.791 195.809L391.851 194.446 391.851 185.866 383.791 187.229 383.791 195.809z"/><path class="cls-8" d="M268.41 217.528L276.47 216.165 276.47 207.585 268.41 208.947 268.41 217.528z"/><path class="cls-8" d="M383.791 331.325L391.851 329.962 391.851 321.382 383.791 322.745 383.791 331.325z"/><path class="cls-8" d="M268.41 353.044L276.47 351.681 276.47 343.101 268.41 344.464 268.41 353.044z"/><path class="cls-7" d="M362.89 229.137c-1.532-1.081-3.507-2.228-5.878-3.6-1.647-.956-8.971-4.636-15.475-3.361-4.286.841-11.222 5.732-7.622 16.129 2.256 6.516 6.111 9.75 11.845 14.458 3.312 2.728 11.422 10.193 14.954 15.077 3.582 4.875 3.629 9.112 1.411 9.547-2.118.416-5.133-1.756-6.862-2.952-1.531-.927-11.726-7.882-15.795-10.819-5.287-3.721-17.964-11.007-29.05-8.833-14.485 2.841-14.886 15.967-12.888 24.017l-12.17 2.387 4.147 11.978 12.12-2.377c9.884 22.467 25.195 26.269 33.226 24.694 8.721-1.711 13.51-9.762 10.69-17.907s-15.729-21.116-35.414-20.529c-.752-3.844-2.329-8.7 5.7-10.277 6.158-1.208 17.375 6.569 25.808 12.539 7.741 5.491 13.885 9.863 19.671 10.314a14.057 14.057 0 0 0 12.244-4.755c3.176-3.9 3.783-9.44 1.659-15.573-4.014-11.594-22.629-25.7-24.558-27.468-2.291-2.058-6.131-5.551-4-6.993 1.312-.922 5.822 1.468 10.449 4.193zm-48.482 60.111c11.472.616 17.723 7.576 18.718 10.451a3.189 3.189 0 0 1-2.451 4.164c-3.449.677-10.327-2.016-16.267-14.615z"/><path class="cls-4" d="M392.182 241.735c2.459.692 3.341 7.572 4.332 16.569 4.925-3.8 13.022-1.588 13.022-1.588s-2.209-12.509-6.442-18.992c-1.536-2.353-2.895-4.066-6.451-9.3s-6.013-9.339-9.626-10.635-7.784-2.205-9.374-1.561-7.6 3.578-9.5 5.306.087 4.059 2.1 4.823a41.528 41.528 0 0 0 7.036 1.279z"/><path class="cls-5" d="M372.541 229.055s-.176 1.941 3.363 4.218 5.906 1.543 6.643.465-6-6.325-8.141-6.469a1.551 1.551 0 0 0-1.865 1.786z"/><path class="cls-10" d="M363.06 232.978l-8.634.6a.621.621 0 0 1-.433-1.1l6.733-5.438 43.665-17.16a1.242 1.242 0 0 1 1.61.7l1.426 3.627a1.243 1.243 0 0 1-.7 1.611z"/><path class="cls-4" d="M385.413 226.388a14.525 14.525 0 0 1-4.421-.758c-2.441-.8-5.251-2.47-6.807-2.653a2.5 2.5 0 0 0-1.919 4.148c1.613 2.254 4.33 2.711 6.326 3.973a29.171 29.171 0 0 1 6.123 5.757c1.582 1.986 4.8 4.463 7.467 4.88s3.447-3.42 3.447-3.42z"/><path class="cls-7" d="M469.293 239.179s-8.977-10.038-25.64 5.082c-10.4 9.434-22.063 21.493-27.353 20.731-5.017-.722-7.969-20.616-7.969-20.616l-15.683 3.912s2.186 27.935 13.222 35.728c13.627 9.622 39.586-8.75 39.586-8.75z"/><path class="cls-7" d="M452.337 238.015s-10.116 31.282-24.9 100.868c7.841 3.579 49.384 10.26 70.84 6.985 0-54.774-11.314-93.091-17.142-104.7a8.451 8.451 0 0 0-5.875-4.462c-6.845-1.416-17.182-2.083-22.923 1.309z"/><path class="cls-4" d="M475.747 238.669c-2.135-2.791-2.142-8.8 1.092-20.858s3.235-29.4-17.054-30.287-21.172 17.937-21.172 22.348c0 10.6 4.483 17.664 8.085 18.44 4.135.89 5.533-.946 9.092 1.433 3.437 2.3 3.055 7.473.409 9.826s21.684 1.889 19.548-.902zm-96.809 71.024c.927-2.177 3.537-.623 5.6.018s3.906.113 5.406.216 7.718 1.991 11.067 1.433c6.273-1.047 22.515-6.3 32.792-12.315s16.436-17.873 20.782-28.705c6.1-15.206 26.052-10.482 24.417-4.941-2.453 8.319-15.341 32.728-31.848 45.98-12.377 9.936-43.721 10.515-48.152 14.049s-7.481 8.152-15.255 10.771-12.423.262-13.835-2.612 1.689-7.2 5.913-9.171a71.572 71.572 0 0 0 10.805-6.658c.612-.478.76-.915.686-1.194-.15-.569-.556-.734-1.319-.913-2.976-.696-8.244-3.175-7.059-5.958z"/><path class="cls-7" d="M406.625 308.932l3.424 18.342s27.543-4.478 38.011-11.793 21.693-25.224 26.108-32.161 7.143-15.228 8.962-20.937-16.656-15.765-25.989-.757-10.678 26.73-19.928 33.23-25.862 12.951-30.588 14.076z"/><path class="cls-11" d="M467.354 210.873a4.455 4.455 0 0 1 7.588-2.367c1.805 1.959 1.262 5.466-3.077 10.4a7.293 7.293 0 0 0-1.305 6.1c.6 2.155 2.9 5.9 6.113 5.576 1.161-.116-1.555-3.646 2.524-7.775 3.5-3.54 7.256-10.048 6.925-16.087-.418-7.638-3.034-14.753-10.149-19.985s-21.345-7.533-29.088 1.256c-6.8 2.407-10.17 8.2-7.492 15.873 1.108-3.821 2.73-7.7 5.175-9.426.941 4.709 4.723 7.064 8.281 8.575s8.684 2.138 10.672 4.858 2.853 3.802 3.833 3.002z"/><rect class="cls-7" x="407.574" y="483.303" width="52.826" height="2.815" rx="1.407"/><path class="cls-7" d="M417.048 478.213L418.633 483.862 428.711 483.862 424.91 474.8 417.048 478.213z"/><path class="cls-7" d="M433.767 484.202L428.711 473.393 434.529 471.106 441.495 484.202 433.767 484.202z"/><rect class="cls-7" x="471.782" y="483.303" width="52.826" height="2.815" rx="1.407"/><path class="cls-7" d="M481.256 478.213L482.841 483.862 492.919 483.862 489.118 474.8 481.256 478.213z"/><path class="cls-7" d="M497.975 484.202L492.919 473.393 498.737 471.106 505.703 484.202 497.975 484.202z"/><path class="cls-2" d="M361.736 450.142L411.659 441.657 411.659 362.44 361.736 370.925 361.736 450.142z"/><path class="cls-10" d="M368.627 395.45l15.139-2.573a2.358 2.358 0 0 0 1.962-2.324v-16.465a2.357 2.357 0 0 0-2.752-2.324l-15.139 2.573a2.358 2.358 0 0 0-1.962 2.324v16.465a2.357 2.357 0 0 0 2.752 2.324z"/><path class="cls-5" d="M390.955 391.555l15.139-2.573a2.358 2.358 0 0 0 1.963-2.324v-16.465a2.359 2.359 0 0 0-2.753-2.324l-15.139 2.573a2.358 2.358 0 0 0-1.962 2.324v16.465a2.357 2.357 0 0 0 2.752 2.324z"/><path class="cls-12" d="M368.627 419.255l15.139-2.573a2.358 2.358 0 0 0 1.962-2.324v-16.465a2.358 2.358 0 0 0-2.752-2.324l-15.139 2.573a2.358 2.358 0 0 0-1.962 2.324v16.465a2.357 2.357 0 0 0 2.752 2.324z"/><path class="cls-7" d="M390.955 415.36l15.139-2.573a2.358 2.358 0 0 0 1.963-2.324V394a2.359 2.359 0 0 0-2.753-2.324l-15.139 2.573a2.358 2.358 0 0 0-1.962 2.324v16.465a2.357 2.357 0 0 0 2.752 2.322z"/><path class="cls-11" d="M368.627 443.06l15.139-2.573a2.358 2.358 0 0 0 1.962-2.324V421.7a2.358 2.358 0 0 0-2.752-2.324l-15.139 2.573a2.358 2.358 0 0 0-1.962 2.324v16.465a2.357 2.357 0 0 0 2.752 2.322z"/><path class="cls-13" d="M390.955 439.165l15.139-2.573a2.358 2.358 0 0 0 1.963-2.324V417.8a2.359 2.359 0 0 0-2.753-2.324l-15.139 2.573a2.358 2.358 0 0 0-1.962 2.324v16.465a2.357 2.357 0 0 0 2.752 2.327z"/><path class="cls-7" d="M800.367 434.772L779.954 414.36 773.986 432.385 759.661 384.637 807.409 398.961 789.385 404.93 809.797 425.342 800.367 434.772z"/><path class="cls-7" d="M5.46 391.277a4.459 4.459 0 0 1-3.626-1.717 4.693 4.693 0 0 1-1.06-3.851l7.642-48.253a6.475 6.475 0 0 1 2.281-3.851 6.2 6.2 0 0 1 4.169-1.717h25.982l4.686 5.568h31.55a4.5 4.5 0 0 1 3.579 1.717 4.619 4.619 0 0 1 1.107 3.851l-6.761 42.685a6.4 6.4 0 0 1-2.326 3.851 6.262 6.262 0 0 1-4.123 1.717z"/><rect class="cls-1" x="23.588" y="181.17" width="113.67" height="180.462" rx="6.427" transform="rotate(-180 80.423 271.401)"/><path class="cls-8" d="M137.258 207.72a22.114 22.114 0 0 1-16.244-6.587L76.3 217.778l12.258 29.811 5.856-1.969a3.623 3.623 0 0 1 4.749 3.89l-30.612 93.627s28.572 9.707 68.707 9.707"/><path class="cls-14" d="M72.449 330.9s24.674 9.707 64.809 9.707"/><path class="cls-2" d="M23.588 181.17h113.67v4.144a6.427 6.427 0 0 1-6.427 6.427H30.014a6.427 6.427 0 0 1-6.427-6.427v-4.144z" transform="rotate(-180 80.423 186.456)"/><circle class="cls-10" cx="30.843" cy="186.726" r="2.886"/><circle class="cls-11" cx="38.048" cy="186.726" r="2.886"/><circle class="cls-15" cx="45.399" cy="186.726" r="2.886"/><path class="cls-8" d="M66.912 200.905L32.311 200.905"/><path class="cls-8" d="M58.476 204.817L32.311 204.817"/><path class="cls-8" d="M58.476 209.139L32.311 209.139"/><path class="cls-8" d="M72.579 256.635A36.237 36.237 0 0 0 36.342 220.4v19.225a17.012 17.012 0 1 1 0 34.023v19.226a36.238 36.238 0 0 0 36.237-36.239z"/><path class="cls-8" d="M36.342 304.275H43.594V348.77799999999996H36.342z"/><path class="cls-8" d="M49.431 304.275H56.683V348.77799999999996H49.431z"/><path class="cls-11" d="M164.4 406.291c-40.135 0-68.707-9.707-68.707-9.707l30.616-93.627a3.623 3.623 0 0 0-4.749-3.89l-5.856 1.969-12.258-29.811 44.71-16.645a22.114 22.114 0 0 0 16.244 6.587z"/><path class="cls-5" d="M200.222 235.085c1.826 1.379-.243 3.465-1.329 5.254s-1.02 3.64-1.468 5.023-3.675 6.778-3.935 10.052c-.486 6.132.647 22.607 3.883 33.659s12.927 19.61 22.077 26.227c12.844 9.285 4.351 25.425-.468 22.594-7.233-4.25-27.736-20.579-36.31-39.174-6.429-13.942.364-43.495-1.915-48.481s-5.309-9-6.539-16.839c-.743-4.735 1.532-8.173 4.56-8.826s8.175 2.61 9.038 7.036a35.792 35.792 0 0 0 3.035 8.812c.306.686.681.927.96.923.57-.007.82-.35 1.165-1.024 1.352-2.636 4.911-7 7.246-5.236z"/><path class="cls-10" d="M182.338 300.208A73.623 73.623 0 0 0 204.03 327.9c6.165 5.025 11.511 9.067 17.059 10.745 8.017 2.423 22.137-11.389 8.665-21.915-13.425-10.489-25.085-16.739-29.02-26.941s-4.127-15.664-5.249-21.752l-17.175.066s-2.238 18.786 4.028 32.105z"/><path class="cls-7" d="M174.982 234.522a6.154 6.154 0 0 0 8.767-1.442 8.927 8.927 0 0 0 .765-1.282 5.358 5.358 0 0 0 .27-.668 1.349 1.349 0 0 1 1.057-.916l4.709-.775a1.346 1.346 0 0 1 1.546 1.11l.745 4.527a1.349 1.349 0 0 1-.621 1.357 7.352 7.352 0 0 0-.629.443 5.443 5.443 0 0 0-1.037 1.086 6.338 6.338 0 1 0 8.767-1.442 9.63 9.63 0 0 0-1.252-.77 3.058 3.058 0 0 0-.588-.22 1.363 1.363 0 0 1-1.022-1.083l-.749-4.553a1.345 1.345 0 0 1 1.109-1.546l15.714-2.585a1.347 1.347 0 0 0 .875-.544l1.509-2.1a1 1 0 0 0-.23-1.4l-.008-.006a1 1 0 0 0-.745-.174l-18.907 3.111-3.087-18.765a1.344 1.344 0 0 0-.545-.876l-.362-.259a.582.582 0 0 0-.833.167l-1.566 2.528a1.346 1.346 0 0 0-.234 1l2.77 16.837-5.991.985a1.363 1.363 0 0 1-1.3-.536 4.011 4.011 0 0 0-.409-.458 10.376 10.376 0 0 0-1.163-.964 6.283 6.283 0 1 0-7.325 10.209zm24.388 6.492a3.742 3.742 0 1 1-1.514-2.452 3.626 3.626 0 0 1 1.514 2.452zm-6.695-13.875a.8.8 0 0 1 1.253-.776.8.8 0 1 1-.928 1.293.776.776 0 0 1-.325-.517zm-17.742 2.889a3.742 3.742 0 1 1 1.514 2.452 3.624 3.624 0 0 1-1.514-2.452z"/><path class="cls-5" d="M200.225 235.088c1.826 1.379-.243 3.465-1.329 5.254a11.678 11.678 0 0 0-1.25 4.154c-.061.3-5.012-3.5-4.666-4.175 1.351-2.633 4.911-6.996 7.245-5.233zm-4.419 236.119c3.516 6.915 4.563 14.911-3.4 14.911h-36.975c-5.6 0-7.461-.829-6.218-3.316s8.29-3.938 13.886-6.425 15.429-3.605 11.1-12.8c-3.113-6.615 7.656-23.458 9.846-15.169 2.048 7.744 10.436 20.192 11.761 22.799z"/><path class="cls-7" d="M244.946 404.027s-57.414-16.357-77.035-8.043c-7.43 3.148-13.86 9.358-13.926 19.551-.07 10.943 6.011 22.825 11.026 33.941 5.06 11.214 7.022 16.666 7.022 16.666l21.273-5.034S182.08 427.718 182.739 423c.813-5.813 20.384 3.615 35.759 8.931 12.288 4.249 19.423 5.184 19.423 5.184z"/><path class="cls-5" d="M268.711 452.949s18.06-5.7 25.22-7.427c8.209-1.976 12.889 7.968 9.426 16.013-2.62 6.087-4.9 24.583-11.948 24.583h-9.9c-3.084 0-3.782-4.44.976-5.6 3.859-.939 6.546-17.571 2.374-16.751s-13 4.51-13 4.51z"/><path class="cls-7" d="M222.58 401.714s-17.768 49.234-11.1 69.472c2.527 7.664 8.119 14.932 18.312 14.932 13.292 0 22.535-5.784 33.918-10.158a175.314 175.314 0 0 0 16.815-7.327l-4.251-19.071s-34.937 10.244-38.391 9.215c-5.259-1.566 5.279-20.017 11.842-34.9 5.245-11.9 6.763-18.931 6.763-18.931z"/><path class="cls-10" d="M213.01 320.218s-7.162 11.1-20.444 71.908a15.581 15.581 0 0 0 5.063 15.192c10.536 8.986 31.727 18.763 60.179 20.346 0-49.844-9.983-86.745-15.91-101.578a12.326 12.326 0 0 0-9.578-7.636c-6.385-.968-14.51-1.068-19.31 1.768z"/><path class="cls-5" d="M235.631 320.849c-2.064-2.7-2.07-8.5 1.055-20.154s3.125-28.412-16.479-29.265-20.458 17.332-20.458 21.594c0 10.244 4.332 17.069 7.812 17.818 4 .86 5.347-.914 8.785 1.384 3.322 2.221 2.953 7.222.4 9.5s20.948 1.82 18.885-.877zM133 346.875c1.542-1.691 3.428.562 5.109 1.809s3.53 1.352 4.866 1.925 6.409 4.286 9.645 4.847c6.061 1.05 22.571 1.445 33.875-.757s20.719-11.061 28.151-19.56c10.432-11.931 27.135-1.239 23.871 3.3-4.9 6.81-24.47 24.972-43.778 31.792-14.476 5.113-43.276-4.382-48.451-2.572s-9.436 5.05-17.371 4.955-11.425-3.733-11.8-6.809 3.845-6.03 8.332-6.482a69.187 69.187 0 0 0 11.992-2.622c.712-.241.987-.593 1.009-.871.045-.568-.273-.848-.912-1.255-2.49-1.591-6.506-5.538-4.538-7.7z"/><path class="cls-10" d="M195.781 372.76c15.08-3.051 27.456-13.37 34.118-21.012 5.226-6 10.092-10.625 12.274-15.994 3.154-7.759-9.058-18.9-22.377-8.179s-17.111 19.268-27.163 23.574c-7.977 3.416-17.139 3.8-23.131 3.577l-1.52 17.108s15.9 4.257 27.8.926"/><path class="cls-7" d="M151.768 367.488L153.41 355.499 159.563 356.128 158.247 368.697 151.768 367.488z"/><path class="cls-10" d="M162.356 367.683a8.293 8.293 0 1 1-8.293-8.293 8.292 8.292 0 0 1 8.293 8.293z"/><path class="cls-7" d="M226.729 293.714a4.133 4.133 0 0 1 6.95-1.888c1.358 1.475 1.8 4.44-.843 8.142a4.514 4.514 0 0 0-.794 3.761c.339 1.421 2.606 2.606 4.916 1.194 1.734-1.06 3.6-4.093 4.494-7.625 2.206-8.7.838-14.4-1.922-19.543s-7.8-11.249-18.643-11.249a21.781 21.781 0 0 0-16.149 7.575 8.845 8.845 0 0 0-8.839 7.894 7.135 7.135 0 0 0 4.076 7.438 24.56 24.56 0 0 1 1.639-6.729c.962 4.6 3.282 9.657 12.523 11.681-1.232-3.7-.352-5.2-.352-6.512a16.268 16.268 0 0 0 12.7 9.579 9.787 9.787 0 0 1 .244-3.718z"/><path class="cls-9" d="M5.568 391.277a5.273 5.273 0 0 1-3.9-1.717A5.4 5.4 0 0 1 0 385.709v-48.253a5.4 5.4 0 0 1 1.67-3.851 5.277 5.277 0 0 1 3.9-1.717h25.98l5.568 5.568h31.55a5.889 5.889 0 0 1 5.567 5.568v42.685a5.889 5.889 0 0 1-5.567 5.568z"/><path class="cls-11" d="M78.07 454.036a36.236 36.236 0 0 0 44.53-25.363l-18.54-5.084a17.012 17.012 0 1 1-32.812-9l-18.541-5.084a36.237 36.237 0 0 0 25.363 44.531z"/><circle class="cls-5" cx="602.056" cy="428.603" r="57.516"/><path class="cls-4" d="M615.793 387.531s27.664 11.4 45.265 28.161c19.335 18.408 31.509 44.871 42.51 61.423 3.142 4.728 5.888 12.479 11.268 7.271s22.028-19.316 25.81-22.977 3-4.664.532-5.531-7.5.77-12.909 2.751-12.658 8.461-19.162 1.463-12.66-35.717-28.849-56.137c-9.812-12.376-35.91-28.377-48.218-29.184-14.329-.938-25.183 4.905-16.247 12.76z"/><path class="cls-13" d="M615.793 387.531a122.121 122.121 0 0 1 36.956 24c19.335 18.409 25.64 24.588 35.111 48.661C695.8 456.9 709.424 448 709.424 448s-11.682-23.251-27.871-43.671c-9.812-12.376-27.82-29.658-53.971-32.217-14.291-1.397-20.725 7.564-11.789 15.419z"/><path class="cls-4" d="M584.352 390.975s47.228.015 50.551 19.312c4.028 23.4 3.035 39.251 3.506 57.6.161 6.256-4.536 18.113 3.72 18.134l38.347.094c5.8.014 7.739-.841 6.456-3.423s-8.37-4.658-14.384-6.7c-17.534-5.95-19.057-5.442-18.465-10.772 1.163-10.47 6.791-56.774 2.574-68.293-8.25-22.534-26.605-22.617-59.677-30.349-15.344-3.578-27.073 16.598-12.628 24.397z"/><path class="cls-11" d="M565.358 368.443s.794 21.464 21.513 23.372c20.611 1.9 41.155 4.954 46.071 14.151s1.4 53.055 1.4 53.055h24.1c-.5-17.3 4.685-55.7-2.971-69.568-6.713-12.163-17.086-14.617-27.884-17.34-13.889-3.5-25.725-6.013-25.725-6.013z"/><path class="cls-1" d="M585.828 286.346c-8.383 14.857-15.641 27.824-21.95 94.042 12.824 2.731 42.873-2.85 63.7-8.275-3.527-48.481-4.494-65.577-8.605-80.06a17.534 17.534 0 0 0-14.771-12.672 43.333 43.333 0 0 0-6.3-.3 14.4 14.4 0 0 0-12.074 7.265z"/><path class="cls-1" d="M609.227 280.879s2.455-5.076 11.8 12.914c4.565 8.792 13.514 36.294 21.892 35.854 8.544-.449 13.679 15.392 3.842 17.905-12.148 3.1-23.423-7.49-23.423-7.49z"/><path class="cls-11" d="M669.009 314.083h-27.14a13.976 13.976 0 0 0 1.116 2.164 11.5 11.5 0 0 1-1.186 13.832 19.31 19.31 0 0 0-5.006 13.03 18.652 18.652 0 1 0 37.292 0 19.31 19.31 0 0 0-5.006-13.03 11.5 11.5 0 0 1-1.186-13.833 13.966 13.966 0 0 0 1.116-2.163z"/><path class="cls-4" d="M678.656 344.607c-.76 2.307-.929 6.4-3.646 7.436a7.793 7.793 0 0 1-8.184-2.248c-2.082-2.262-5.605-11.6-.353-13.693a24.548 24.548 0 0 1 5.359-1.437s-.106-.989-.415-4.715c-.212-2.552 3.566-3.512 3.983-.707a18.35 18.35 0 0 0 2.293 7.1 12.013 12.013 0 0 1 .963 8.264zm-37.978-10.96c-1.492-1.174-2.728.927-3.933 2.176s-2.7 1.587-3.719 2.238a34.581 34.581 0 0 1-6.463 3.379c-4.816 1.686-17.72 1.623-17.72 1.623l.082 11.937s20.516-2.651 25-1.875 7.125 2.182 13.6 1.023 8.839-4.611 8.724-7.178-3.968-4.411-7.7-4.168a57.355 57.355 0 0 1-10.17-.512c-.615-.1-.888-.35-.944-.575-.114-.458.108-.731.575-1.151 1.828-1.64 4.576-5.417 2.668-6.917zm-43.36-53.747c4.725-11.41 3.231-10.732 5.234-21.5 2.161-11.617 11.984-25.31 28.778-15.953s8.167 24.966 5.978 28.521c-5.26 8.547-12.379 12.016-15.668 10.854a20.072 20.072 0 0 1-6-3.192s-1.957 4.717-1.958 7.969c.002 3.349-17.637-3.627-16.364-6.699z"/><path class="cls-11" d="M704.626 362.137c4.4-1.79 3.965-7.723.854-9.676s-2.5-7.244-6.111-8.921c-4.884-2.269-9.36-2.036-11.953 3.458s-7.264 1.983-10.183 8.573c-1.847 4.168 2.947 8.977 10.183 7.494s11.832 1.262 17.21-.928z"/><path class="cls-7" d="M643.073 247.207a25.832 25.832 0 0 0-21.576-14.06 10.018 10.018 0 1 0-12.549 2.554c.168.091.341.162.512.243a23.675 23.675 0 0 0-7 6.079c-3.6 4.557-6.574 12.4-5.27 18 1.021 4.386 3.022 5.287 5.553 6.227s4.849-2 4.408-3.695c-1.592-6.136-.3-9.4 2.133-10.244a4.3 4.3 0 0 1 5.369 5.475c-.2.977 3.567.362 5.534-.332a29.094 29.094 0 0 0 9.256-5.423c-.2 3.117-.616 6.807-.616 6.807l15.289 7.378a24.873 24.873 0 0 0-1.043-19.009zm-19.346 114.84v5.559h36.225c8.24 0 11.622 3.9 11.622 9.741v108.771h6.734V377.347c0-5.838 3.383-9.741 11.622-9.741h36.225v-5.559z"/><path class="cls-1" d="M839.2 333.471l-125.376-21.309a7.282 7.282 0 0 1-6.062-7.179V190.241a7.283 7.283 0 0 1 8.5-7.18l126.251 21.458a7.283 7.283 0 0 1 6.062 7.236l-.875 114.592a7.283 7.283 0 0 1-8.5 7.124z"/><path class="cls-7" d="M847.5 325.863v-7.186h-55.339v6.8l34.262 5.823c12.052-.6 21.008-2.8 21.077-5.437z"/><path class="cls-7" d="M756.378 247.592a46.4 46.4 0 0 0-6.475 2 18.85 18.85 0 0 0-11.992 17.146c-.278 11.054.711 25.695 4.328 50.255l71.87 12.215c-19.074-49.753-31.157-64.733-43.206-77.28a15.477 15.477 0 0 0-14.525-4.336z"/><path class="cls-12" d="M847.505 318.646c0-3.109-12.389-5.629-27.672-5.629s-27.672 2.52-27.672 5.629 12.389 5.629 27.672 5.629 27.672-2.52 27.672-5.629z"/><path class="cls-15" d="M807.757 276.478h24.152a12.389 12.389 0 0 1-.993 1.925 10.238 10.238 0 0 0 1.056 12.31 17.189 17.189 0 0 1 4.454 11.6 16.6 16.6 0 1 1-33.187 0 17.185 17.185 0 0 1 4.455-11.6 10.236 10.236 0 0 0 1.056-12.31 12.389 12.389 0 0 1-.993-1.925z"/><path class="cls-11" d="M847.7 326.347l.226-29.561H828.8a12.4 12.4 0 0 0 .994 1.926 10.238 10.238 0 0 1-1.057 12.31 17.276 17.276 0 0 0-2.081 20.317l12.543 2.132a7.283 7.283 0 0 0 8.501-7.124z"/><path class="cls-16" d="M839.2 333.471l-125.376-21.309a7.282 7.282 0 0 1-6.062-7.179V190.241a7.283 7.283 0 0 1 8.5-7.18l126.251 21.458a7.283 7.283 0 0 1 6.062 7.236l-.875 114.592a7.283 7.283 0 0 1-8.5 7.124z"/><path class="cls-5" d="M667.806 291.085s.338 1.751 4.027 2.856 5.584-.142 5.96-1.277-6.882-4.039-8.8-3.623a1.42 1.42 0 0 0-1.187 2.044z"/><path class="cls-4" d="M688.293 297.252c2.337-.015 4.612.857 14.185 4.606a74.085 74.085 0 0 0 6.221-10.739s-7.378-1.432-9.854-2.13-5.552-.872-10-4.569-7.656-6.687-11.162-6.91-7.4.036-8.639 1-5.777 5.075-7 7.075 1.106 3.547 3.074 3.707a38.011 38.011 0 0 0 6.51-.66z"/><path class="cls-7" d="M665.777 292.548l-6.366 1.329a.467.467 0 0 1-.435-.777l4.458-4.735 30.752-17.227a.933.933 0 0 1 1.27.358l1.431 2.555a.933.933 0 0 1-.358 1.27z"/><path class="cls-4" d="M678.448 285.475a13.326 13.326 0 0 1-4.08.455c-2.35-.089-5.243-.841-6.658-.607a2.289 2.289 0 0 0-.635 4.134c1.99 1.573 4.494 1.286 6.569 1.889a26.681 26.681 0 0 1 6.845 3.509c1.895 1.346 5.353 2.707 7.8 2.4s2.164-3.881 2.164-3.881z"/><path class="cls-7" d="M692.587 299.758c7.993 3.251 16.816 7.56 27.45 5.523 13.108-2.51 29.845-20.122 37.469-40.13 2.1-5.51 3.7-11.136-.335-15.914-2.845-3.372-9.108-4.8-12.823 1.206-8.593 13.886-16.284 34.366-26.465 38.139-5.957 2.207-14.741.706-20.518-1.449z"/><path class="cls-4" d="M758.224 248.591c-7.042-11.256-5.337-10.8-9.379-21.866-4.359-11.932-17.213-24.7-33.353-11.79s-4.214 27.925-1.26 31.305c7.1 8.125 15.265 10.536 18.545 8.718a21.558 21.558 0 0 0 5.791-4.453s2.915 4.654 3.5 8.1c.593 3.555 18.053-6.982 16.156-10.014z"/><path class="cls-15" d="M734.785 228.08a4.563 4.563 0 0 1 4.856-5.913c2.287.293 5.048 3.65 4.606 7.466s-.948 9.731 3.585 10.734 8.819-2.649 8.269-5.65-2.5-6-1.828-8.6.874-6.09-1.955-8.751-5.376-1.717-7.36-5.84-5.768-5.614-8.72-4.849-5.162.409-7.982-1.62-7.919-1.543-10.536 2.272-5.218 3.14-7.788 3.592-7.945 4.488-7.975 9.117-1.691 7.273-2.845 9.757 2.176 13.618 11.143 10.56c-.9-2.164-2.307-4.782-2.717-7.958-.369-2.865 10.47-9.916 13.237-6.567 3.184 3.852 5.127 5.333 8.344 4.478s8.941 9.526 1.662 10.782-14.481 6.029-14.594 7.91 1.92 3.113 3.22 2.127 5.342-4.31 5.9-.677-2.975 2.447-3 4.128 5.906 7.8 9.586 3.881 3.962-2.491 6.066-3.2 5.658-4.782 2.86-12.071-6.034-15.108-6.034-15.108z"/><path class="cls-4" d="M773.8 314.663c2.749 1.165 7.743 1.788 8.736 5.22s-.6 7.476-3.585 9.8-14.777 5.684-16.8-.959a17.9 17.9 0 0 1-.151-7.786s-2.746-.045-7.341-.045c-3.147 0-3.478-3.572 0-3.8a22.551 22.551 0 0 0 8.93-2.087 14.759 14.759 0 0 1 10.211-.343z"/><path class="cls-10" d="M802.29 231.624a33.66 33.66 0 0 1-13.479-2.74 35.048 35.048 0 0 1-18.567-18.567 34.526 34.526 0 0 1 0-26.959 35.048 35.048 0 0 1 18.567-18.567 34.526 34.526 0 0 1 26.959 0 35.048 35.048 0 0 1 18.567 18.567 34.526 34.526 0 0 1 0 26.959 35.048 35.048 0 0 1-18.567 18.567 33.662 33.662 0 0 1-13.48 2.74z"/><path class="cls-1" d="M793.855 211.621L817.075 196.837 793.855 182.053 793.855 211.621z"/></g></g></svg>